HIERARCHY
ROOT root
{
	OFFSET	0	13.1	24.9
	CHANNELS 6  Xposition Yposition Zposition Xrotation Yrotation Zrotation
	JOINT spine_1
	{
		OFFSET	0	9.99999	0
		CHANNELS 3  Xrotation Yrotation Zrotation
		JOINT spine_2
		{
			OFFSET	0	112	-10
			CHANNELS 3  Xrotation Yrotation Zrotation
			JOINT spine_3
			{
				OFFSET	0	206.5	19.3
				CHANNELS 3  Xrotation Yrotation Zrotation
				JOINT spine_4
				{
					OFFSET	0	110.4	14.6
					CHANNELS 3  Xrotation Yrotation Zrotation
					JOINT neck_1
					{
						OFFSET	0	71.8	-50.3
						CHANNELS 3  Xrotation Yrotation Zrotation
						JOINT neck_2
						{
							OFFSET	0	86.2	-25.8
							CHANNELS 3  Xrotation Yrotation Zrotation
							JOINT head_ee
							{
								OFFSET	0	179.8	-8.7
								CHANNELS 3  Xrotation Yrotation Zrotation
								End Site
								{
									OFFSET	1	0	0
								}
							}
						}
					}
					JOINT left_clavicle
					{
						OFFSET	-43.2	22.4	-70.8
						CHANNELS 3  Xrotation Yrotation Zrotation
						JOINT left_shoulder
						{
							OFFSET	-93.9	-5.79999	48.7
							CHANNELS 3  Xrotation Yrotation Zrotation
							JOINT left_elbow
							{
								OFFSET	-291.4	-30.8	15.2
								CHANNELS 3  Xrotation Yrotation Zrotation
								JOINT left_lowarm_twist
								{
									OFFSET	-110.7	-3.89999	13.6
									CHANNELS 3  Xrotation Yrotation Zrotation
									JOINT left_hand
									{
										OFFSET	-110.7	-3.89999	13.6
										CHANNELS 3  Xrotation Yrotation Zrotation
										JOINT left_ee
										{
											OFFSET	-80.8	-5.10001	12.1
											CHANNELS 3  Xrotation Yrotation Zrotation
											End Site
											{
												OFFSET	1	0	0
											}
										}
									}
								}
							}
						}
					}
					JOINT right_clavicle
					{
						OFFSET	43.2	22.4	-70.8
						CHANNELS 3  Xrotation Yrotation Zrotation
						JOINT right_shoulder
						{
							OFFSET	93.9	-5.79999	48.7
							CHANNELS 3  Xrotation Yrotation Zrotation
							JOINT right_elbow
							{
								OFFSET	291.4	-30.8	15.2
								CHANNELS 3  Xrotation Yrotation Zrotation
								JOINT right_lowarm_twist
								{
									OFFSET	110.7	-3.89999	13.6
									CHANNELS 3  Xrotation Yrotation Zrotation
									JOINT right_hand
									{
										OFFSET	110.7	-3.89999	13.6
										CHANNELS 3  Xrotation Yrotation Zrotation
										JOINT right_ee
										{
											OFFSET	80.8	-5.10001	12.1
											CHANNELS 3  Xrotation Yrotation Zrotation
											End Site
											{
												OFFSET	1	0	0
											}
										}
									}
								}
							}
						}
					}
				}
			}
		}
	}
	JOINT left_hip
	{
		OFFSET	-82.8	-127.5	0.300001
		CHANNELS 3  Xrotation Yrotation Zrotation
		JOINT left_knee
		{
			OFFSET	-28.2	-396.7	2.2
			CHANNELS 3  Xrotation Yrotation Zrotation
			JOINT left_ankle
			{
				OFFSET	-11.7	-411.3	35.4
				CHANNELS 3  Xrotation Yrotation Zrotation
				JOINT left_toes
				{
					OFFSET	0	-60	-88.6
					CHANNELS 3  Xrotation Yrotation Zrotation
					JOINT left_foot_ee
					{
						OFFSET	-22.5	-16.5	-42.2
						CHANNELS 3  Xrotation Yrotation Zrotation
						End Site
						{
							OFFSET	1	0	0
						}
					}
				}
			}
		}
	}
	JOINT right_hip
	{
		OFFSET	82.8	-127.5	0.300001
		CHANNELS 3  Xrotation Yrotation Zrotation
		JOINT right_knee
		{
			OFFSET	28.2	-396.7	2.2
			CHANNELS 3  Xrotation Yrotation Zrotation
			JOINT right_ankle
			{
				OFFSET	11.7	-411.3	35.4
				CHANNELS 3  Xrotation Yrotation Zrotation
				JOINT right_toes
				{
					OFFSET	0	-60	-88.6
					CHANNELS 3  Xrotation Yrotation Zrotation
					JOINT right_foot_ee
					{
						OFFSET	22.5	-16.5	-42.2
						CHANNELS 3  Xrotation Yrotation Zrotation
						End Site
						{
							OFFSET	1	0	0
						}
					}
				}
			}
		}
	}
}
MOTION
Frames: 14
Frame Time: 0.02
1372.05 701.618 -1475.22 26.6253450229 84.2673705272 -20.7387842874 -4.17812 -0.740367 -2.78749 -4.17397 -0.561564 -2.82891 -4.13832 0.253501 -2.87291 -4.14978 -0.203209 -2.8769 0.68034 -5.29846 -16.1201 1.44705 4.08281 -18.0886 -0.0 0.0 -0.0 10.207 23.0212 17.2367 24.5736 -33.6109 78.1241 2.90826 -55.2238 1.52141 -13.4404 -0.66245 1.58175 3.16105 13.3087 26.3382 -0.0 0.0 -0.0 9.61412 -9.43611 -18.1953 -8.58054 6.51401 -59.6445 0.397716 11.1457 -0.0388063 16.9038 -0.282785 2.13297 -0.449352 -10.2757 -1.37749 0.0 0.0 0.0 -14.1295 -5.90135 -14.0582 -43.1599 -0.67994 6.43488 -7.29743 23.7227 1.12226 40.196 -0.0 -0.0 -0.0 0.0 -0.0 42.2327 11.7594 -6.69654 -43.0289 0.670619 -6.417 13.9346 -8.65117 1.95254 1.92872 -0.0 -0.0 0.0 0.0 0.0 
1356.27906099 704.047 -1481.85404912 19.9807105022 83.3957724325 -14.6781819426 -3.96983 -0.639963 -2.60971 -3.96617 -0.472663 -2.64511 -3.93774 0.278046 -2.67256 -3.94768 -0.147368 -2.68294 0.924816 -4.3754 -14.683 1.57798 4.54662 -16.4596 -0.0 0.0 -0.0 10.0467 24.1726 16.774 22.9621 -32.3357 78.0777 2.73078 -53.5172 1.37714 -18.5574 -1.00946 2.13708 2.63637 18.6147 24.2197 -0.0 0.0 -0.0 9.66933 -8.82333 -18.3584 -6.37044 6.87277 -59.7842 0.426496 11.9299 -0.0445628 18.4741 -0.276884 2.33345 -0.628405 -7.99321 0.745255 0.0 0.0 0.0 -12.2258 -7.65687 -13.4494 -46.8925 -0.962423 6.93479 -18.737 22.2644 2.89602 33.8532 -0.0 -0.0 -0.0 0.0 -0.0 41.4847 12.0193 -7.27866 -43.2372 0.685456 -6.44541 18.064 -6.71086 2.48802 0.887816 -0.0 -0.0 0.0 0.0 0.0 
1356.35111715 704.047 -1482.02280841 18.31374467 82.8152052502 -12.9990975029 -3.96983 -0.639963 -2.60971 -3.96617 -0.472663 -2.64511 -3.93774 0.278046 -2.67256 -3.94768 -0.147368 -2.68294 0.924816 -4.3754 -14.683 1.57798 4.54662 -16.4596 -0.0 0.0 -0.0 10.0467 24.1726 16.774 22.9621 -32.3357 78.0777 2.73078 -53.5172 1.37714 -18.5574 -1.00946 2.13708 2.63637 18.6147 24.2197 -0.0 0.0 -0.0 9.66933 -8.82333 -18.3584 -6.37044 6.87277 -59.7842 0.426496 11.9299 -0.0445628 18.4741 -0.276884 2.33345 -0.628405 -7.99321 0.745255 0.0 0.0 0.0 -12.2258 -7.65687 -13.4494 -46.8925 -0.962423 6.93479 -18.737 22.2644 2.89602 33.8532 -0.0 -0.0 -0.0 0.0 -0.0 41.4847 12.0193 -7.27866 -43.2372 0.685456 -6.44541 18.064 -6.71086 2.48802 0.887816 -0.0 -0.0 0.0 0.0 0.0 
1337.20294845 707.479 -1488.5279346 15.3023434665 82.8095564269 -10.2395969849 -3.77626 -0.400493 -2.48731 -3.77285 -0.241458 -2.50774 -3.75696 0.454556 -2.47801 -3.76552 0.0576249 -2.51867 -0.0630498 -4.45267 -15.9872 0.712929 5.27184 -17.7612 -0.0 0.0 -0.0 9.95284 25.0886 16.4584 20.8439 -32.0821 78.8077 2.56634 -51.8028 1.24638 -19.6331 -1.08866 2.2498 2.54456 21.3803 24.3349 -0.0 0.0 -0.0 9.45166 -7.15021 -18.093 -5.1647 6.83302 -60.5114 0.434311 12.142 -0.0461925 18.1088 -0.278747 2.28683 -0.682367 -8.31115 0.957456 0.0 0.0 0.0 -10.6607 -9.59856 -12.6089 -51.2264 -1.33065 7.49112 -22.8066 21.7905 3.52254 32.5846 -0.0 -0.0 -0.0 0.0 -0.0 40.5408 12.8738 -7.55271 -43.8262 0.727956 -6.52543 22.4896 -5.55977 3.03532 1.32527 -0.0 -0.0 0.0 0.0 0.0 
1315.25574325 708.941 -1498.25094834 14.6983453663 83.6757515398 -10.0815309913 -3.6073 -0.467294 -2.28182 -3.60447 -0.321189 -2.30691 -3.58697 0.315918 -2.30764 -3.5944 -0.0523929 -2.32856 -0.544435 -5.14109 -16.6975 0.279791 4.51885 -18.5282 -0.0 0.0 -0.0 9.18425 24.7494 15.4101 17.8113 -31.8493 77.5015 2.35842 -49.4309 1.08564 -19.2202 -1.05801 2.20671 2.52889 18.4514 23.4553 -0.0 0.0 -0.0 9.4488 -7.29905 -18.0754 -3.66938 6.51816 -61.0139 0.465471 12.9846 -0.0529705 18.7784 -0.275106 2.37227 -0.671856 -8.60368 0.76351 0.0 0.0 0.0 -8.69942 -11.1839 -11.844 -54.7151 -1.65714 7.91804 -24.7001 22.3774 3.82466 30.6472 -0.0 -0.0 -0.0 0.0 -0.0 40.05 12.5078 -7.7506 -45.2865 0.836877 -6.72193 23.3361 -4.89747 3.1373 2.82362 -0.0 -0.0 0.0 0.0 0.0 
1315.57942084 708.941 -1499.03356485 13.0823190986 82.9070571024 -8.45440182688 -3.6073 -0.467294 -2.28182 -3.60447 -0.321189 -2.30691 -3.58697 0.315918 -2.30764 -3.5944 -0.0523929 -2.32856 -0.544435 -5.14109 -16.6975 0.279791 4.51885 -18.5282 -0.0 0.0 -0.0 9.18425 24.7494 15.4101 17.8113 -31.8493 77.5015 2.35842 -49.4309 1.08564 -19.2202 -1.05801 2.20671 2.52889 18.4514 23.4553 -0.0 0.0 -0.0 9.4488 -7.29905 -18.0754 -3.66938 6.51816 -61.0139 0.465471 12.9846 -0.0529705 18.7784 -0.275106 2.37227 -0.671856 -8.60368 0.76351 0.0 0.0 0.0 -8.69942 -11.1839 -11.844 -54.7151 -1.65714 7.91804 -24.7001 22.3774 3.82466 30.6472 -0.0 -0.0 -0.0 0.0 -0.0 40.05 12.5078 -7.7506 -45.2865 0.836877 -6.72193 23.3361 -4.89747 3.1373 2.82362 -0.0 -0.0 0.0 0.0 0.0 
1252.07676371 716.917 -1518.13749631 25.2528842525 87.8276939611 -22.1854054612 -2.89504 -0.4214 -1.59164 -2.89369 -0.31928 -1.61522 -2.88262 0.110072 -1.64278 -2.88636 -0.15072 -1.63955 0.506665 -5.56857 -16.8917 1.3463 4.21724 -18.9386 -0.0 0.0 -0.0 8.58547 24.8635 14.5349 8.63659 -30.5634 72.7417 1.72847 -40.5677 0.63887 -21.4177 -1.22469 2.43348 2.06736 24.8257 22.1487 -0.0 0.0 -0.0 9.43948 -6.74693 -18.102 -0.501212 8.62503 -61.8987 0.648573 17.8115 -0.101631 17.7388 -0.280331 2.2396 -0.496048 -7.64158 0.0380209 0.0 0.0 0.0 -0.36952 -16.6356 -8.35213 -66.7326 -2.96913 9.22328 -24.7384 24.7753 3.87365 39.8036 -0.0 -0.0 -0.0 0.0 -0.0 33.8859 13.3174 -7.20367 -43.6549 0.715507 -6.50219 29.6758 -4.45844 3.85501 5.23622 -0.0 -0.0 0.0 0.0 0.0 
1253.07931033 716.917 -1520.84306343 15.8647967507 86.6087652964 -12.7868212044 -2.89504 -0.4214 -1.59164 -2.89369 -0.31928 -1.61522 -2.88262 0.110072 -1.64278 -2.88636 -0.15072 -1.63955 0.506665 -5.56857 -16.8917 1.3463 4.21724 -18.9386 -0.0 0.0 -0.0 8.58547 24.8635 14.5349 8.63659 -30.5634 72.7417 1.72847 -40.5677 0.63887 -21.4177 -1.22469 2.43348 2.06736 24.8257 22.1487 -0.0 0.0 -0.0 9.43948 -6.74693 -18.102 -0.501212 8.62503 -61.8987 0.648573 17.8115 -0.101631 17.7388 -0.280331 2.2396 -0.496048 -7.64158 0.0380209 0.0 0.0 0.0 -0.36952 -16.6356 -8.35213 -66.7326 -2.96913 9.22328 -24.7384 24.7753 3.87365 39.8036 -0.0 -0.0 -0.0 0.0 -0.0 33.8859 13.3174 -7.20367 -43.6549 0.715507 -6.50219 29.6758 -4.45844 3.85501 5.23622 -0.0 -0.0 0.0 0.0 0.0 
1241.4193543 715.956 -1526.49556903 6.70836900751 85.0676412717 -3.98071952703 -2.70869 -0.448474 -1.36509 -2.70773 -0.36071 -1.39086 -2.69743 0.00726333 -1.43684 -2.70024 -0.219727 -1.41996 0.578574 -5.54637 -16.3677 1.36229 3.82951 -18.3668 -0.0 0.0 -0.0 8.03388 25.084 13.7242 7.29096 -30.0271 71.6128 1.54681 -37.4583 0.524471 -20.8236 -1.17877 2.37281 2.06368 24.8949 22.143 -0.0 0.0 -0.0 9.39714 -5.84536 -18.0886 1.4902 9.41787 -62.302 0.705683 19.2684 -0.119792 17.967 -0.279391 2.26873 -0.4131 -7.6718 -0.512701 0.0 0.0 0.0 1.92752 -17.0049 -7.58625 -68.3158 -3.16159 9.37402 -24.6278 24.6005 3.85295 39.5257 -0.0 -0.0 -0.0 0.0 -0.0 32.4835 13.3192 -6.9727 -43.6647 0.716224 -6.50354 31.9925 -4.42075 4.09869 6.34721 -0.0 -0.0 0.0 0.0 0.0 
1224.64446012 724.39 -1530.47411697 6.4902509825 85.6229354457 -4.13674742141 -2.73239 -0.340275 -1.17855 -2.73165 -0.264597 -1.19781 -2.725 0.051377 -1.2256 -2.72707 -0.142814 -1.21834 0.485778 -5.03525 -15.616 1.20724 4.0682 -17.4812 -0.0 0.0 -0.0 7.57411 24.9891 13.0925 5.65912 -29.6924 71.3106 1.28462 -32.4697 0.374077 -19.8964 -1.10837 2.27716 2.06508 24.8892 22.1504 -0.0 0.0 -0.0 9.64733 -5.44814 -18.6054 3.09361 9.88233 -62.5678 0.759335 20.6139 -0.138091 18.2665 -0.277979 2.30696 -0.338942 -7.93986 -1.10628 0.0 0.0 0.0 5.08032 -17.458 -6.02476 -69.9252 -3.36146 9.5218 -20.8994 24.5199 3.26657 40.0316 -0.0 -0.0 -0.0 0.0 -0.0 30.5765 13.4461 -6.65671 -42.9435 0.664574 -6.40536 29.9187 -3.77004 3.88268 6.68014 -0.0 -0.0 0.0 0.0 0.0 
1189.555692 740.645 -1534.98362893 31.0234187158 88.87421151 -30.0115437602 -2.47619 -0.426846 -0.513354 -2.47613 -0.393316 -0.539474 -2.47217 -0.244595 -0.621209 -2.47255 -0.339632 -0.574786 0.174418 -4.61513 -13.057 0.66719 2.58195 -14.5936 -0.0 0.0 -0.0 5.82441 25.6712 10.6291 2.76227 -27.6567 70.3344 0.848866 -22.8067 0.171216 -16.9558 -0.89551 1.96659 2.089 24.2823 22.1475 -0.0 0.0 -0.0 10.0334 -4.13341 -19.4669 6.39903 11.2919 -63.9271 0.838008 22.5444 -0.16703 19.2047 -0.272267 2.42665 -0.0449111 -8.25252 -3.14018 0.0 0.0 0.0 10.7265 -18.1485 -2.00823 -70.5067 -3.43468 9.57381 -16.5024 23.943 2.56646 40.1891 -0.0 -0.0 -0.0 0.0 -0.0 26.1588 13.195 -5.91352 -40.7236 0.513445 -6.09928 31.1867 -4.97536 4.01425 9.66406 -0.0 -0.0 0.0 0.0 0.0 
1176.54048218 746.825 -1535.84556115 7.66126871826 89.2296285682 -7.66058444518 -2.27267 -0.419903 -0.254815 -2.27272 -0.402837 -0.281019 -2.2707 -0.32028 -0.372385 -2.2707 -0.375071 -0.317129 -1.11541 -3.41416 -11.0678 -0.755067 2.81885 -12.19 -0.0 0.0 -0.0 5.40339 24.3176 10.1362 1.72227 -26.6953 70.2806 0.619424 -17.0585 0.0928975 -14.3268 -0.718975 1.68011 2.1406 23.1166 22.1748 -0.0 0.0 -0.0 10.1718 -3.33231 -19.8033 8.37212 12.0521 -64.0691 0.904757 24.1411 -0.193481 20.0314 -0.26561 2.53203 0.213733 -9.49844 -5.31663 0.0 0.0 0.0 13.9889 -18.6041 -1.52291 -70.4071 -3.42211 9.56496 -15.213 23.2877 2.35647 40.2171 -0.0 -0.0 -0.0 0.0 -0.0 24.9651 12.7675 -5.51601 -38.9901 0.403769 -5.85639 31.8235 -6.93238 4.08046 11.9631 -0.0 -0.0 0.0 0.0 0.0 
1147.26043896 755.563 -1528.71020593 -172.584412313 86.4406372709 172.598558147 -2.00866 -0.254233 -0.0939888 -2.00869 -0.247737 -0.109976 -2.00822 -0.213363 -0.167166 -2.00818 -0.237086 -0.131372 -0.94401 -2.73999 -10.2926 -0.623622 3.42323 -11.2999 -0.0 0.0 -0.0 4.02025 24.0685 8.23993 -1.00484 -24.2257 70.3884 0.377256 -10.5856 0.0349494 -12.8501 -0.625662 1.51578 2.04956 21.0506 21.0425 -0.0 0.0 -0.0 10.5154 -2.30572 -20.575 12.5101 13.4274 -64.4356 1.06238 27.7557 -0.262483 20.5043 -0.261117 2.59227 0.24107 -10.7327 -5.98317 0.0 0.0 0.0 21.3507 -19.1591 0.705909 -70.1367 -3.38804 9.5408 -17.0868 22.4479 2.64054 39.4835 -0.0 -0.0 -0.0 0.0 -0.0 22.129 10.708 -5.53813 -34.5966 0.159257 -5.22727 33.9078 -12.6797 4.32298 13.6307 -0.0 -0.0 0.0 0.0 0.0 
1127.306326 756.213 -1521.74527836 177.710517384 84.579948088 -177.720742918 -2.07055 -0.0568285 0.214997 -2.07053 -0.0703941 0.210946 -2.07078 -0.120002 0.187224 -2.07082 -0.0889271 0.203827 -1.63779 -2.20869 -10.1518 -1.31962 4.14973 -11.0256 -0.0 0.0 -0.0 3.34009 24.1863 7.30995 -2.84108 -22.7339 70.0107 0.306442 -8.63193 0.0231274 -12.3848 -0.597141 1.46351 2.00914 19.3987 20.3138 -0.0 0.0 -0.0 10.5451 -2.18255 -20.6445 14.4797 14.0984 -64.569 1.14839 29.6337 -0.30379 20.9429 -0.256507 2.64811 0.449829 -11.5741 -7.6504 0.0 0.0 0.0 25.6621 -19.5574 1.67394 -71.3422 -3.54081 9.64724 -19.3996 21.7732 2.99327 38.723 -0.0 -0.0 -0.0 0.0 -0.0 20.2048 9.31936 -5.06402 -35.1412 0.186932 -5.30623 35.8074 -16.0095 4.55229 15.0414 -0.0 -0.0 0.0 0.0 0.0 
